<?xml version="1.0" standalone="no"?>
<!DOCTYPE svg PUBLIC "-//W3C//DTD SVG 20010904//EN"
 "http://www.w3.org/TR/2001/REC-SVG-20010904/DTD/svg10.dtd">
<svg version="1.0" xmlns="http://www.w3.org/2000/svg"
 width="550.000000pt" height="550.000000pt" viewBox="0 0 550.000000 550.000000"
 preserveAspectRatio="xMidYMid meet">
<metadata>
Created by potrace 1.11, written by Peter Selinger 2001-2013
</metadata>
<g transform="translate(0.000000,550.000000) scale(0.100000,-0.100000)"
fill="#000000" stroke="none">
<path d="M560 2751 l0 -2748 790 0 790 0 -5 441 c-3 243 -8 574 -10 736 -2
162 -7 518 -10 790 -4 272 -8 593 -9 713 -2 119 -2 217 0 217 4 0 356 -709
527 -1060 39 -80 79 -157 89 -173 11 -15 16 -27 12 -27 -3 0 -2 -6 3 -12 6 -7
119 -227 251 -488 132 -261 297 -585 366 -720 69 -135 144 -284 166 -331 l42
-86 695 0 695 0 -6 596 c-4 328 -9 857 -11 1176 -3 319 -7 823 -10 1120 -3
297 -7 853 -11 1235 -6 737 -12 1350 -13 1363 -1 4 -355 6 -788 5 l-788 -3 2
-640 c2 -655 4 -1808 3 -1880 l0 -40 -46 85 c-25 47 -68 127 -95 178 -27 51
-74 136 -103 190 -58 106 -70 129 -271 502 -161 298 -188 349 -265 490 -32 58
-79 146 -105 195 -26 50 -74 137 -105 195 -60 109 -97 178 -170 315 -39 72
-73 136 -120 220 -9 17 -36 67 -60 113 l-44 82 -693 0 -693 0 0 -2749z"/>
</g>
</svg>
